/* XPM */
static char *c980d712ba28431c94338303b767d55fdWAujDfDcnIVW99Y[] = {
/* columns rows colors chars-per-pixel */
"64 64 230 2 ",
"   c #160001",
".  c #1B0202",
"X  c #1D060C",
"o  c #2B0C02",
"O  c #230B0A",
"+  c #270806",
"@  c #2D1109",
"#  c #33150C",
"$  c #35180A",
"%  c #2B151C",
"&  c #321512",
"*  c #3C1D12",
"=  c #3C1C1B",
"-  c #341A19",
";  c #320E0C",
":  c #3D211B",
">  c #3D2425",
",  c #3A2631",
"<  c #42241A",
"1  c #47271C",
"2  c #502A1F",
"3  c #432423",
"4  c #4B2C24",
"5  c #472D2B",
"6  c #4A2D2A",
"7  c #432A25",
"8  c #4F322B",
"9  c #4C3127",
"0  c #54342C",
"q  c #55392D",
"w  c #5B392D",
"e  c #553327",
"r  c #4C2D33",
"t  c #4E3331",
"y  c #523533",
"u  c #5C3C33",
"i  c #553C3C",
"p  c #5C3E3A",
"a  c #553934",
"s  c #502F2A",
"d  c #623D35",
"f  c #603C2C",
"g  c #5D4136",
"h  c #5F4239",
"j  c #624235",
"k  c #63443C",
"l  c #68463F",
"z  c #66493D",
"x  c #6B4B3E",
"c  c #714D3F",
"v  c #5C4344",
"b  c #5E4D55",
"n  c #634442",
"m  c #6A4745",
"M  c #654944",
"N  c #6B4B43",
"B  c #654949",
"V  c #6C4D4A",
"C  c #714E45",
"Z  c #724F4B",
"A  c #6E5144",
"S  c #6E514B",
"D  c #735246",
"F  c #73544B",
"G  c #7A554C",
"H  c #755A4D",
"J  c #7B5B4D",
"K  c #785444",
"L  c #6C5353",
"P  c #745452",
"I  c #755A52",
"U  c #7B5C53",
"Y  c #755B5A",
"T  c #7C5D5A",
"R  c #775656",
"E  c #6C4C51",
"W  c #7D6155",
"Q  c #7E615B",
"!  c #6F6059",
"~  c #7C5D62",
"^  c #7D6765",
"/  c #815D4D",
"(  c #825E54",
")  c #825F58",
"_  c #895E57",
"`  c #84614F",
"'  c #836355",
"]  c #8A6654",
"[  c #8C6957",
"{  c #84645B",
"}  c #8A655C",
"|  c #85695C",
" . c #8B6A5C",
".. c #866957",
"X. c #926D5C",
"o. c #8F705D",
"O. c #93715D",
"+. c #836561",
"@. c #896661",
"#. c #866962",
"$. c #8C6C63",
"%. c #8C6D6A",
"&. c #856B6A",
"*. c #926E63",
"=. c #936E69",
"-. c #8D7265",
";. c #8E726A",
":. c #8B766A",
">. c #937264",
",. c #997565",
"<. c #94746B",
"1. c #99766C",
"2. c #95796D",
"3. c #9B7B6C",
"4. c #997966",
"5. c #8C7372",
"6. c #887772",
"7. c #957572",
"8. c #9A7672",
"9. c #967A73",
"0. c #9C7C73",
"q. c #957B7B",
"w. c #9C7D79",
"e. c #94777A",
"r. c #A27E6C",
"t. c #A17D74",
"y. c #A27F79",
"u. c #9D8175",
"i. c #9D827A",
"p. c #9A8575",
"a. c #9F806E",
"s. c #A3816E",
"d. c #A38274",
"f. c #A98574",
"g. c #A68876",
"h. c #AB8976",
"j. c #A4847A",
"k. c #A9867B",
"l. c #A68A7C",
"z. c #AB8A7C",
"x. c #B28D7D",
"c. c #AB907E",
"v. c #B2917F",
"b. c #9D8484",
"n. c #9C868B",
"m. c #A48582",
"M. c #A98781",
"N. c #A68B84",
"B. c #AC8C83",
"V. c #A48B8A",
"C. c #AC8D8A",
"Z. c #B18E83",
"A. c #B08F8A",
"S. c #AD9285",
"D. c #AE9289",
"F. c #AA9686",
"G. c #B29284",
"H. c #BA9584",
"J. c #BD9986",
"K. c #B4948B",
"L. c #BA968B",
"P. c #B5998C",
"I. c #BB9B8D",
"U. c #B79886",
"Y. c #AC9495",
"T. c #AC9996",
"R. c #B49592",
"E. c #B99692",
"W. c #B59A93",
"Q. c #BB9C93",
"!. c #B49B9B",
"~. c #BC9D9B",
"^. c #B7A18E",
"/. c #BEA195",
"(. c #BDA19B",
"). c #B5A49D",
"_. c #B99EA3",
"`. c #BCA2A2",
"'. c #BBAAA6",
"]. c #C29E8C",
"[. c #C29E93",
"{. c #C29D99",
"}. c #C2A28F",
"|. c #CBA08F",
" X c #C2A295",
".X c #C3A49B",
"XX c #C5A99C",
"oX c #CAAB9C",
"OX c #C9A798",
"+X c #D1B09B",
"@X c #C3A4A1",
"#X c #C5A9A3",
"$X c #CBACA3",
"%X c #CDAFA9",
"&X c #C7A7A7",
"*X c #D0AEA5",
"=X c #CDB2A4",
"-X c #CEB2AB",
";X c #C2B3AE",
":X c #D3B5AB",
">X c #D6B9AB",
",X c #DBBBAD",
"<X c #D5B4A9",
"1X c #DBBCB3",
"2X c #D5BBB5",
"3X c #C9B9B7",
"4X c #E0BCAE",
"5X c #D8C3BB",
"6X c #DFC0AE",
"7X c #E2C5BC",
"8X c #E4C6B5",
"9X c #E1C2AD",
"0X c #D6BDC1",
"qX c #DCC6C7",
"wX c #DFD0C9",
"eX c #E5CCC4",
"rX c #E5C9C4",
"tX c #E6D3CD",
"yX c #F1D4C7",
"uX c #ECD7D6",
"iX c #F5DBD6",
"pX c #FDE5DB",
"aX c #F3DDE0",
"sX c #FEECE3",
"dX c #FEEBEB",
"fX c #F9E4E6",
"gX c #FFF2EB",
"hX c #FFF1E6",
"jX c #FFF5F5",
"kX c #FFEFF2",
/* pixels */
"} ( 1.,.r.X.H.r.[ ] f.x.x.Z.y.y.].y.t.X.*.t.y.0.{ I 9.9.=.Z.B.y.y.j.d.G.L.d.,.d.d.d.h.h.h.f.s.f.j o.s.+XOXJ.v.v.}.x.x.[ O.v.J.] ",
"@.} 1.k.f._ / X.r.X._ _ X.t.8.,.y.t.y.y.t.*.1.B.2.u 9 R w.8.y.Z.L.t.k. X].j.d.d.x.h.h.f.g.g.h.v.o...W 4.s.c.v.H.v.4.s.[ O.h.J.J.",
"y._ _ r.h.f.,.r.f.,.r.,.X.X.1.].{.r.*.y.Z.Z.y.y.S.h @ w 1.) <.w.t.t.].[.d.3.z.3.v.v.v.v.h.h.z.c.h.4.a.4.[ a.h.J.f.r.s.O.] ` O.x.",
"y.*.x.t.] t.H.,.X.,.*.X._ _ *.y.x.Z.z.f.y.Z.L.L.$.j $ o F ) y.l.=.3.B.3./ X.k.d.G.G.G.G.v.h.g.f.h.s.^.^.a.s.s.z.h.h.s.O.s.s.O.O.",
"_ r.OXt.} f.L.G X.t.,./ _ *.,.=.1.Z.].Z.l.G.K.K.F q 1 * @.d.0.0.z.>.J W |  .3.U.G.Z.d.d.d.d.k.f.d.o.v.U.z.z.s.>.h.v.J.h.s.s.O.O.",
"=.M.f.G y.z.].3.1.d.,.*.,.@.,.y.L.B.t.y.K.I.D.u.| 9 < 4 8.l.=.2.3.O.` ] 3.4.3.G.z.h.k.k.z.Z.B.k.U.u.g.g.h.v.v.f.O.f.J.|.s.,.[ r.",
"Z.{.=.J f.t.I.G.t.1.G X.y.*._ *.H.k.t.0.t.3.3.1.' 0 $ < I $.9.z.] >.d.r.4.3.d.f.t.k.Z.G.G.Z.B.k.L.G.v.g.z.s.G.G.O.O.O.h.x.+XJ.s.",
"L.Z.K =.L.[.OX*.k.OXZ.=.=.*.t.t.3.d.3.,.*.| U A a U H | -.$.1.{ c.>.r.h.4.3.G.x.d.z.A.M.j.k.M.z.a.l.d.d.v.4.h.g.O.O.O.O.] |.|.s.",
"z.3.1.*X X' 0.w >.} ( d.<.0.,XJ J g.g.W q j ` e q | l.j.$.p.p.N.s.3.f.v.4.d.Z.Z.d.K.].B.y.B.Z.t.| S.$.g.}.3.4.d.` h.r.O.O.O.` / ",
" .S.d.B.0.$.N <.k o k 0.3.<.3. .J x ..o.K j e * 1 J $.U j.2.N.p.3.s.O.3.d.k.0.G.3.3.L.Q.y.K.*XK.z.f.2.z.OXU.,./ r.K K ,.[ [ X.X.",
">.l.S.l.i.j.XXQ.k 0 0.u.3.S.B.u.F.c c W ..' j q < } z { <.p.2.p.0.h.G.G.3.Z.Z.k.=.t.k.j.k.Z.B.B.z.>.>.,.d.z.s.3.s.[ K ] [ r.r.r.",
"u.W U 9.j.j F W Q U 2.K.K.u.XX,X^.oXv.x x 4.>.'  .>.F | P.S.F.F.0.1.d.z.*.d.Z.t.Z.K.t.0.K.Z.t.k.d.3.d.3.3.3.3.d.,.f.r.[ X.H.f.f.",
"3.2.S.3.A W 9 6 N.R.N.D.D.j./.K.U.^.a.a.G. .G >. Xl.g.<.| :.l.^.G.1.G $.0.j.0.Q.Z.t.t.k.k.G.I.L.d.z.>.$.t.t.3.3.r.*.r.x.r.f.h.r.",
"j.p.N.-.F ;.9.#.9.W Q $.S.S.G.^.>X^.g z a.d.d.}.L.g.<.| g H o.F.M.d.$.=.<.Z.Z.Z.t.0.t.d.3.t.z.H.d.B.>. .3.1.3.3.].Z.,.y.r.r.f.H.",
"-.P.<.k $.i.-XC.N.i.R.-.p.=XXXU./.o.c 3.c.3.h.,XU.H x H l.a.p.p.>.<.y.0.( t.B.@.k.B.k.t.d.3.>.3.d.B. XG.t.1.X.X.H.4Xr.X.r.r.r.|.",
"<.u I g.R i.#XD.P.m.(././.P.P././.H ..j.3.3.j. XG.>.A /.=X:.W -.;.@.) 8.0.1.$.t.Z.<.t.k.1.1.3.K 3.>.W.u.{ 3.3.t.t.{.,.x.x.r.x.x.",
"'  .$.R <.~.~.A.m.m.K.&Xd.S.l.P.m.m R 8.y.} j.{.8X X3.^.p.2.^.:.0 d =.@.8.C.8.M.8.y.=.=.8.*._ =.J 0.2.2.B.l.9.B.>.<.z.$.d.j.1.d.",
"0.@.B.A.B.@XC.@.w.R.:X~.w.j.u.9.r P 7.m @.m.3.0.yXQ.3.U.D.l.'.g = & s R C.e.M.m.R _ =.8.X./ _ t.0.:.:.$.{ p.P.N.B.{ 0.-.w.D.M.K.",
"j.t.M.{.A.M.w.n e.w.P.R j./.2.S = P C.=.j.B.=.L.G.' U.S.K.:.| H F } 6 m &XM.C.Z _ 8.{.Z._ y.[.f.$.W j.u.<.p.2.0.P.} | | M.Z.9.Z.",
" .j.z.0.C.E.m.w.W.y.C.%X$X7.p.n (.b.B.V.K.M.{ } g >.>X2.S.c.W p.$X@.=._ 8.&Xe.d E.M.=._ t.Z.y.} u.N.$.2.1.p.(.i.<.#X<.: { $X XK.",
"3.3.I. .1.{.8.{.R.C.m.9.N.B.j.D.l.p.A q N 2.l.>.]  XB.u..XP.l.P.2.C U =.=.=.=.y.E.Z.m d G.I. .3.B.<./.XX-.u.W.G.B.$XN + 1 G 2.z.",
"z.h.v.G.t.3.M.B.C.R.w.{ j.(.W U ! l.:.-.9.>. .$.L.j.] j.u.0.u.Q.U o $.t.@._ y.{.A.A.M.y.z.G. XoXB.F.XXU q 0.P./.K. X .j * e I j ",
"s.v.s.OX Xd.E.t.W.G.@.-XP.<.-Xp.S.p.H :.l.2.} 2.d.2.8.@.H M.#.#.u F 0.j.Z.*.y.Z.{.1.{.yXK.<.^.XXXXu.< W j.N :.U.K.3.Z.*X0. .=.<.",
"s.h.}.d.I. XU @.i..X.Xm.W.W.j.W.c.| :.c.g.oX/.l.M.G.-.>.P.XX| a < N K.Z.y.Z.,.y.t._ t.*X8X6XoXU.-.D | :.u.j.' $.3.2.Q. Xd.E.z.I.",
"4.O.a.[  .] 1.<.i.7X.Xw.w.;.j.XXl.^.^.c.U.yX/.N.z.F $..XD.{ M y u u.P 8.l.$.1.0. .L.' g.yXpX=XF.| ^.p.u.-.$.Z.3.j.} ] d.1.t.t.0.",
"O.4.s.J J d.G.K.%X/.C..Xl.9./.i.F.^.F.c.F.(.6X$X9.F =.M.-.S H $.C.$.p.>.U L.Z.B.k.k.d.>XXXI.XXp. .K.3.2. Xl.>.<Xz.oXJ $.[.z.d.L.",
"s.U.4.4.j.B.B.~.+.~.iXw.%.1X0.2.p.:.c.F.K.>X6X&X;.%.7.Q W N.=X5X5X7X=Xp.=.t.0.3. X3.K..XK.p.5X=XD. .2.a.d. X.XU.G.t.k.t.>.[.[.k.",
"h.d.d.h.t.M.=.y.9.C.=.B.P.2.N.u.F.p.^.^.-.&XW.m.%.j.#.I p.7XsXuX5XsXN.2.D.0.<.Z J 1.I.z.P.P.g S.l.K.I.z.L. X.X>.j.d. Xd.>.x.1.G.",
"L.>.Q.=.d M.y.A.m.%.{ +.w.D.2.:.F.^.i./.9.C.A.T { q.Y 7.).rXiX6XsXwX5X^.u.B.B.0.t.} k u N h F./.K.>X^.3.0.] -.h.] 0.1.t.Z.[ X.OX",
"@.Q.Q.L.y.%.e.m.m.P T T #.>.| S.F.F.D.N.P : 3 > n 9.#.m.).eXhXtXhXqXpX'.I U <.j.y.*.d.l U N ;.5XXXP.oXXX XI.0.| U J d.Z.k.t.Z.Z.",
"j.1X=.w.C.Z y.E.&X+.R { M $..XD.^.! 0 7 N m - ; B w.V.i.p.uXhXhXsXwX).6.5.;.=.1.Z.t.$.{.D.(.y : j.G.s.t. X,Xx.>.d.f. Xf.z.f.X.*.",
"E.t.A.y.8.C.#XN.B.:XC.2.j.G..XN.p.i.0 S 2.q.+.P &.w.R.b.;.2X3XqXaX3X^ 5 &.7.{ -.j R =.l.W.i.P & k S.>.z.G.k. X.XB.h.] *.X.w ( *.",
"K.u.B.I.Q./.D..X.XD.j.l.G.l.u.j.-.$.d./.K.0.S.<X:Xm.w.q.V.V.e.n.n.b , X t p.6.^ n I #X$X9.^ L B i ; w.E.=.M.A.8.{.Z.t.3.>.g.3.` ",
"Q.K./.K.j.u.p.D./.o.D.j.-.D.3. .M.U.K.K.U. X>X<X1X.X;.%.5.~ ~ v % , % X , h 5.F.:.$.W.P.W.B : i + - = U E.) {.t./ } k.L.} ..4.a.",
".XK.Q.G.l.S.S.F.-.| p.p.2.d.B.h.G.0.Q.U.j.XX XS.W.w.Z ~ R r r r % % %   5 M Q N.l.u./.D.&.& O - - a . + ) =.Z.k.d _ G C J ..H W ",
".Xh.g.S.P./.I.l.:.p.<.B.l.$.j.B.l.B.g.l.U.l.u.XX/.Q P R R r   . % X X O ! 7.+.p.-.-.B./.Q H +.Q %.y.<.s ; Z @.{.=.L.8.C J W W o.",
"I.3.4.g.c.g.l.p.u.A -.F.M.W.K.B.B.k.@.l.1.W Q.Q.F N I M v n 3 > X - O y w.{ | | J -.a.F.| &.p.D.A.y.m.P m m _ y.L.k.L.Z...A W | ",
"z.>.2.g.:...c.F.S.i.S.P.D.m.j.=.3.| j.0.H -.-.F 0 U ;.m.;.B r @ X @ . 8 ;.2.| | >.] u.>.U $.j.+.%.w.7.>.$.( G @.y.0.t.1.-.W ' A ",
"a.o.>.a.o.| U.^.#.XXS.R.P.) 7.M.| 0.K.=.j.0.4 M <.#.V #.w.%.+.N Q h 4 k W ,.j x d.W o. .2.-X$X2.#XC.>.w.1.Z.m ( =.A.1.d ( =.-.<.",
"s.o.W 4...-.l.:.l.S.W.P.8.F R j.B.1.$.I.2.z $.Q 0 a S S T p.q.q.9.P.$.P.g.>. .O.O.3.2.d.2.g.U /.:Xi.9.K.w.G } B.t.=.d o u ) <.<.",
"a.o.a.a.H a.l.p.(.P.W.N.{ $.A.A.Q.0.M.$.@.i.D.<.T %.%Xj.I m.N.2.i.l.p.g.3.d.v.r.,. .3.3.| $.u.W.9.2.M d Z d =._ Z.z._ 0 } @.G 3 ",
"v.o.c.c.:.O.| a.p.I.u.9.w.0.K.C.7.k.l.Z @.m.7.w.w.%Xj.S 9.(.i.<.2.c.K.| 1.G. .3. .j.l.{ { 2.0.p.N.u . 9 B..X} G [.*X=.d =._ C l ",
"}.^.G...H p.c.F.p.u.XXC.2.W.E.K.M.8.E.A.9.m.9.7.+.W.B.D.9.2.u.<.a.-.| j.d.t.L.*.B.$.D 1 u :.j.;.I @ & k M.7Xm =.y./ d 2 d C _ _ ",
"U.v.g.a.4.a.p.^.S.p.:XW.9.Q.Q.G.K.@.%.y.P m.@X%.T .XR.%XB.w.u.u.p.g.S.j.d.1.*.j.=.F 0.p.{ ^ 9.&.g +   %.m.$.G L.y.*.l / { } G <.",
",.S.l.S.F.p.j.p.p.^.:.l.I.S. Xz.8.$.m y.8.V T 7.m.%XR.p.| D.S.z.l.I.P.;.<.Z.3.$.@.I %.+.+.+.&.Y > . = M V 7.=.t._ t.t.,.*.,.x c ",
"| G.M.g.c.S.K.2.P.i.2.S.P.M..XK.8.&X) u V T %.V 0.C.m.$.W j.g.S.S.g.| 1.j.W.@XR n k = + 5.'.&.>     5 I Z T <.Z C t.Z._ f ,.,._ ",
"9.1.N.K././.F.D.XXa./.XXB.I. X{.w.@.B n @.N.N.p P 7.2.2.I.P.<.^.D./.$XS.G.C.#.N.T +.V - ^ _.V.i O > ;.Q m =._ s C [.z.2 e X.] f.",
"B.0..Xl.S.>XI.I./.P.I.XX$X.XI.Q.<.n =.=.T +.b.C.p F V.W.p.u..XW./.eXpXeXR.9.C.N.@XV.~.Y i E e.v a 7.W.D.k 6 Z _ _ k.H./ / f.3.f.",
"3.k.K.I. XK.XX.X/.XX.XQ.$X:Xj.j.F { Q..X8.8.$.m T Z 8.R.y.G.M.A.qXuXuXgXwX).V.'.'.^ !.q.E = ; + +.2.7XhX/.| 2.<.B.G.+Xf.X.h.r.r.",
">.t.z.k.G.K. XOX:X$XW.P.@.@.;.| $.>.m t.1XG.T n d <.$.w.t.w.R.R.kXuXaXaXqX3X^ ^ ! T.i.q.m.+ + 7.7XS.S.pXpXyXl.p.| 0.t.3.h.f.r.|.",
"Z.B.z.d.d.B.z.M.P.$XM.A.D.2.I S u w j  .y.>.%._ m N R { 8.W.w.9.Y.0X).T.T.'.3X`.p.! e.P y ; R iXiXeXN.#XiXN.v 7.~.0.R ) ,.].|.,.",
"oXZ.r.0.0. X.X,Xl.m.l.P.0.2.2.#.l k B.u.F j.XXQ.} 4 <.Q.$.j.A.%.Y.V.T.n.^ qXkXwX'.^ 5.y n e.~.dXyX!.7.:.+.5 Y C.B.n u ) *.x.y._ ",
"{.Z.k.K.z.G.G.$XN.{ { j.D.$XB.| d.:.d. .>.U.B.d.$.( D.>.j.j.k Q.#X%.Y 6.0XkXfXuXwXY.5 y V.@X,X1XuX`.Y . . T._.b.n r n E 1.{.8._ ",
"d.z.z.{.Z.<.3.j./.D.0.2.w.D.%.2.z.G.O.g.Q.,.2.d.$.z. .{ >.R 3.Q.Q q.^ N.tXaXjXjXjXT.5 ^ R.C.7X1X~.m.  . ^ q._.Y.E +.{.~.M.{.t.8.",
"Z.Z.<.j.B.d..XQ.N g { S.u.Q.D.W J f.4. XU.F 3.z. .h.d.] $.} u. XS.#.R.V.Y.aXkXqXfX!.5.W.-XXXOX.X5 . v i b.Y.V._.R &.0XiX{._ 1.{.",
",X<Xt.y.K.<.0.l @ k | B.0.i.j.-.J c.h.G.I.d.d.d.d.| >.$.t.d.3.W g l.D.:.V.Y.0XfXqX5.q.`.R.XXz.< + Y 5.q.!._.n.L &.V.=.n / 8.y.t.",
"*X1X=.Z.8.( l 4 ,.2.3.2.B.Q.u.j.g.J g.c.g.U.2.>.3.A | U.Z.d.u.3.-.-.w.2.;.e.q.5._.q.V.`.m.U U . I !.:.&.V.).).v 3 B # # g I..X X",
"B.0 | j.$.B.U <.W.A F /.l.-.P.3.s.U.o.4.}.d.,.U.d.K f.g.$.l.3.U S.XXS.p.#X!.L B R !.&.R.P.h + $ g k M +.P.i.:.Q B w.g A 2.d.d.z.",
"u G ) t.Z.d.j.L.1.R J j.K.u./.>XU.a.v. Xg.a.G.v.d.h.$Xj.| G.G.3.S./.B.N.W.B.;.V C.7.i.C.@.+ 4 8.A g W :.q.W V :.%.S.<.#.a.3.h.J.",
"t.E.k.B.1X$.u <.#.g.<.p.j.2./.j. Xv.U.}. XI.G.d.g.g.h.oXB.,.j.] $.1XS.P.#X:.$.L 6 ;.2Xj.6 p 6 %.W.W W <.#.h a i.8.n <.g.3.4.4.s.",
"y.=.B.t.Z.j.R C $.W <.-.j.P.S.a.] <XS.c.d.F k.I.0.Q.Q.l.F $..X0.m.:XW.Q..Xl.g.| * J S.$.E Y.e.m..Xw.z I R 9.<.;.(.<.D.1.| >.[ f ",
"m M.A.7.N m k.j H z ' A -.g.S.l.,.u.>.3.' } G.9.<.G..XG.B.>.U {.-XK.$XW.G.=XoXI.[ 9 W >X&Xm.&X&Xm.w.N @.%.R..Xm.w./.P.=. . .f.` ",
"M._ d Z 0.j.$.D -.$.o.-.x q K.H ,.2.Z.B.h.l.j.G.G.E.M.{ k.Z.C 8.R.&X.XC.,X9XG.OX,Xg.; 7.{._.&.E +.m N w.w.&.V.(.n P T Z.L.} x.H.",
"m.*.7.=.<.{ N j.0.U XX2.c.z.H F.>.0.d. X Xu.z.k.Z.B.oXK.w.{.:XE.m.~.8.l.,X9X9X+X}.8XJ d 7.w.E R = 6 m n P R m.w.w.R ) w.w.k.k.G "
};
